<?xml version="1.0" standalone="no"?>
<!DOCTYPE svg PUBLIC "-//W3C//DTD SVG 20010904//EN"
 "http://www.w3.org/TR/2001/REC-SVG-20010904/DTD/svg10.dtd">
<svg version="1.0" xmlns="http://www.w3.org/2000/svg"
 width="1000.000000pt" height="1000.000000pt" viewBox="0 0 1000.000000 1000.000000"
 preserveAspectRatio="xMidYMid meet">
<metadata>
Created by potrace 1.11, written by Peter Selinger 2001-2013
</metadata>
<g transform="translate(0.000000,1000.000000) scale(0.100000,-0.100000)"
fill="#000000" stroke="none">
<path d="M4877 9234 c-1 -1 -65 -4 -142 -8 -77 -3 -156 -8 -175 -10 -19 -3
-62 -7 -95 -11 -80 -8 -114 -13 -215 -31 -47 -8 -98 -17 -115 -20 -62 -11
-304 -74 -410 -108 -808 -255 -1518 -762 -2022 -1446 -71 -96 -223 -325 -223
-336 0 -3 -9 -18 -19 -33 -34 -47 -166 -312 -218 -436 -83 -197 -158 -415
-188 -545 -2 -8 -10 -40 -18 -70 -17 -62 -57 -256 -63 -304 -2 -17 -6 -42 -9
-56 -2 -14 -7 -52 -11 -85 -3 -33 -8 -69 -10 -80 -30 -156 -23 -724 11 -955
31 -207 61 -361 94 -485 44 -160 52 -187 82 -277 200 -591 512 -1092 959
-1538 278 -279 535 -474 875 -668 63 -36 307 -157 340 -169 17 -6 69 -28 117
-47 106 -45 174 -49 263 -15 112 42 197 164 196 283 0 143 -80 245 -241 310
-499 203 -983 557 -1315 961 -22 27 -52 62 -66 79 -154 184 -365 549 -472 818
-71 178 -154 452 -173 568 -2 14 -7 36 -10 50 -6 27 -7 30 -23 135 -43 273
-50 672 -15 935 14 109 49 300 70 385 133 527 375 998 723 1405 136 159 378
386 536 503 28 20 55 41 62 47 26 22 213 141 296 188 398 229 898 389 1332
427 39 4 88 8 110 11 56 6 411 6 465 0 25 -3 77 -8 115 -11 39 -3 95 -10 125
-15 30 -5 71 -11 90 -14 19 -3 60 -10 90 -16 30 -6 66 -14 80 -16 23 -5 170
-43 245 -64 420 -118 869 -366 1255 -694 87 -75 314 -312 402 -423 82 -102
248 -334 248 -347 0 -2 17 -33 38 -67 59 -99 117 -210 169 -327 78 -177 119
-223 229 -261 246 -83 474 158 383 405 -30 82 -148 326 -210 437 -47 83 -254
405 -268 417 -3 3 -28 34 -56 70 -212 278 -499 559 -795 777 -418 308 -963
560 -1448 668 -84 19 -165 36 -198 41 -21 3 -41 7 -44 9 -3 2 -33 7 -65 10
-33 4 -69 9 -80 11 -11 3 -47 7 -80 10 -33 3 -71 7 -85 10 -14 2 -97 6 -185
10 -88 3 -177 7 -198 8 -20 1 -38 2 -40 0z"/>
<path d="M4770 5980 c-160 -33 -266 -88 -383 -199 -96 -91 -155 -182 -201
-310 -65 -179 -53 -413 30 -587 184 -389 651 -558 1039 -375 159 75 300 212
367 358 l24 50 1106 0 1107 0 26 -52 c63 -123 192 -259 306 -321 l46 -26 -9
-46 c-17 -82 -89 -323 -129 -427 -92 -244 -197 -452 -336 -665 -64 -97 -184
-264 -202 -280 -4 -3 -38 -43 -78 -90 -64 -77 -264 -277 -353 -355 -195 -171
-495 -365 -751 -488 -206 -99 -477 -194 -691 -242 -90 -20 -92 -20 -123 27
-75 113 -216 228 -345 281 -109 44 -187 59 -304 57 -97 -1 -132 -6 -220 -32
-202 -59 -375 -207 -471 -403 -149 -304 -93 -647 145 -896 79 -83 230 -170
355 -205 93 -25 281 -27 379 -3 191 47 360 166 470 332 39 58 86 159 86 183 0
16 28 29 81 38 199 33 590 159 824 266 869 395 1561 1070 1975 1926 123 255
227 553 294 843 l33 145 72 38 c223 116 377 327 417 570 8 48 8 199 1 238 -3
14 -8 43 -12 65 -20 114 -124 296 -222 385 -168 154 -350 222 -569 215 -99 -3
-127 -9 -224 -42 -174 -60 -316 -175 -412 -333 -20 -34 -39 -67 -41 -73 -3 -9
-287 -12 -1116 -12 -612 0 -1116 2 -1120 5 -4 3 -22 31 -40 63 -164 289 -506
444 -831 377z"/>
</g>
</svg>
